<svg enable-background="new 0 0 58 58" height="512" viewBox="0 0 58 58" width="512" xmlns="http://www.w3.org/2000/svg"><path d="m0 9h5v40h-5z" fill="#bde3ff"/><path d="m4 6h5v46h-5z" fill="#83bbed"/><path d="m8 3.001h6v52h-6z" fill="#5792d3"/><path d="m52 8.999h6v40h-6z" fill="#bde3ff"/><path d="m49 5.999h5v46h-5z" fill="#83bbed"/><path d="m43.001 2.998h7v52h-7z" fill="#5792d3"/><path d="m33 0h-2-19v58h19 2 13v-58z" fill="#366db6"/><g fill="#fff"><path d="m23 41c-2.206 0-4-1.794-4-4s1.794-4 4-4 4 1.794 4 4-1.794 4-4 4zm0-6c-1.103 0-2 .897-2 2s.897 2 2 2 2-.897 2-2-.897-2-2-2z"/><path d="m33 37c-2.206 0-4-1.794-4-4s1.794-4 4-4 4 1.794 4 4-1.794 4-4 4zm0-6c-1.103 0-2 .897-2 2s.897 2 2 2 2-.897 2-2-.897-2-2-2z"/><path d="m26 38c-.552 0-1-.447-1-1v-15c0-.553.448-1 1-1s1 .447 1 1v15c0 .553-.448 1-1 1z"/><path d="m36 34c-.552 0-1-.447-1-1v-15c0-.553.448-1 1-1s1 .447 1 1v15c0 .553-.448 1-1 1z"/><path d="m26 27c-.197 0-.393-.059-.561-.172-.274-.186-.439-.496-.439-.828v-4c0-.409.249-.776.629-.929l10-4c.308-.123.657-.085.932.101s.439.496.439.828v4c0 .409-.249.776-.629.929l-10 4c-.119.048-.245.071-.371.071zm1-4.323v1.847l8-3.2v-1.847zm9-.677h.01z"/></g></svg>